<?xml version="1.0" standalone="no"?>
<!DOCTYPE svg PUBLIC "-//W3C//DTD SVG 20010904//EN"
 "http://www.w3.org/TR/2001/REC-SVG-20010904/DTD/svg10.dtd">
<svg version="1.0" xmlns="http://www.w3.org/2000/svg"
 width="200.000000pt" height="200.000000pt" viewBox="0 0 200.000000 200.000000"
 preserveAspectRatio="xMidYMid meet">
<metadata>
Created by potrace 1.14, written by Peter Selinger 2001-2017
</metadata>
<g transform="translate(0.000000,200.000000) scale(0.100000,-0.100000)"
fill="#000000" stroke="none">
<path d="M190 1516 c0 -8 16 -16 42 -19 87 -12 91 -36 86 -562 -3 -426 -2
-418 -83 -430 -26 -4 -45 -13 -45 -20 0 -9 85 -12 391 -12 l391 1 -6 44 c-3
25 -6 94 -6 153 0 84 -3 109 -13 109 -9 0 -18 -24 -26 -70 -19 -104 -46 -150
-106 -180 -46 -23 -62 -25 -182 -25 -125 0 -134 1 -155 23 l-23 23 0 448 c0
429 1 450 19 470 11 12 37 24 58 27 23 4 38 12 38 20 0 11 -36 14 -190 14
-154 0 -190 -3 -190 -14z"/>
<path d="M1080 1517 c0 -9 14 -17 38 -21 21 -3 47 -15 58 -27 18 -20 19 -41
19 -469 0 -504 3 -482 -76 -495 -21 -4 -39 -12 -39 -19 0 -8 55 -12 205 -12
156 -1 205 2 205 11 0 8 -22 15 -55 20 -36 4 -62 14 -74 26 -22 24 -31 98 -31
255 l0 114 88 0 c226 0 358 72 408 222 12 37 15 73 12 133 -7 128 -58 199
-180 248 -48 19 -76 22 -315 25 -226 3 -263 2 -263 -11z m495 -39 c82 -43 119
-122 119 -253 -1 -89 -23 -178 -55 -219 -39 -50 -94 -69 -206 -74 l-103 -4 1
218 c1 345 6 360 139 352 41 -3 89 -12 105 -20z"/>
</g>
</svg>
